<mxfile host="app.diagrams.net" modified="2023-11-25T23:02:46.313Z" agent="Mozilla/5.0 (Windows NT 10.0; Win64; x64) AppleWebKit/537.36 (KHTML, like Gecko) Chrome/119.0.0.0 Safari/537.36 Edg/119.0.0.0" etag="lKMA8v_XINjIEu70mkw5" version="22.1.4" type="google">
  <diagram name="Pagina-1" id="4K00RK4FX_yByHIcb2aS">
    <mxGraphModel grid="1" page="1" gridSize="10" guides="1" tooltips="1" connect="1" arrows="1" fold="1" pageScale="1" pageWidth="1654" pageHeight="2336" math="1" shadow="0">
      <root>
        <mxCell id="0" />
        <mxCell id="1" parent="0" />
        <mxCell id="tE7Q02Ol-RE7BCVSA9B6-1" value="" style="endArrow=none;html=1;rounded=0;" edge="1" parent="1" source="tE7Q02Ol-RE7BCVSA9B6-33">
          <mxGeometry width="50" height="50" relative="1" as="geometry">
            <mxPoint x="440" y="200" as="sourcePoint" />
            <mxPoint x="520" y="200" as="targetPoint" />
          </mxGeometry>
        </mxCell>
        <mxCell id="tE7Q02Ol-RE7BCVSA9B6-2" value="" style="ellipse;whiteSpace=wrap;html=1;strokeColor=#000000;fillColor=#000000;" vertex="1" parent="1">
          <mxGeometry x="517" y="195" width="10" height="10" as="geometry" />
        </mxCell>
        <mxCell id="tE7Q02Ol-RE7BCVSA9B6-3" value="" style="endArrow=none;html=1;rounded=0;" edge="1" parent="1">
          <mxGeometry width="50" height="50" relative="1" as="geometry">
            <mxPoint x="522" y="201" as="sourcePoint" />
            <mxPoint x="600" y="120" as="targetPoint" />
          </mxGeometry>
        </mxCell>
        <mxCell id="tE7Q02Ol-RE7BCVSA9B6-8" value="" style="endArrow=none;html=1;rounded=0;" edge="1" parent="1">
          <mxGeometry width="50" height="50" relative="1" as="geometry">
            <mxPoint x="600" y="280" as="sourcePoint" />
            <mxPoint x="520" y="200" as="targetPoint" />
          </mxGeometry>
        </mxCell>
        <mxCell id="tE7Q02Ol-RE7BCVSA9B6-9" value="$$M \le K$$" style="text;html=1;strokeColor=none;fillColor=none;align=center;verticalAlign=middle;whiteSpace=wrap;rounded=0;rotation=-45;" vertex="1" parent="1">
          <mxGeometry x="517" y="140" width="60" height="30" as="geometry" />
        </mxCell>
        <mxCell id="tE7Q02Ol-RE7BCVSA9B6-10" value="&lt;font style=&quot;font-size: 15px;&quot;&gt;$$\infty$$&lt;/font&gt;" style="rounded=0;whiteSpace=wrap;html=1;" vertex="1" parent="1">
          <mxGeometry x="600" y="100" width="120" height="40" as="geometry" />
        </mxCell>
        <mxCell id="tE7Q02Ol-RE7BCVSA9B6-11" value="" style="endArrow=none;html=1;rounded=0;entryX=0;entryY=0.5;entryDx=0;entryDy=0;" edge="1" parent="1" target="tE7Q02Ol-RE7BCVSA9B6-12">
          <mxGeometry width="50" height="50" relative="1" as="geometry">
            <mxPoint x="720" y="120" as="sourcePoint" />
            <mxPoint x="760" y="120" as="targetPoint" />
          </mxGeometry>
        </mxCell>
        <mxCell id="tE7Q02Ol-RE7BCVSA9B6-12" value="$$S$$" style="ellipse;whiteSpace=wrap;html=1;" vertex="1" parent="1">
          <mxGeometry x="760" y="58" width="40" height="40" as="geometry" />
        </mxCell>
        <mxCell id="tE7Q02Ol-RE7BCVSA9B6-13" value="&lt;font style=&quot;font-size: 15px;&quot;&gt;$$\infty$$&lt;/font&gt;" style="rounded=0;whiteSpace=wrap;html=1;" vertex="1" parent="1">
          <mxGeometry x="600" y="260" width="120" height="40" as="geometry" />
        </mxCell>
        <mxCell id="tE7Q02Ol-RE7BCVSA9B6-20" value="$$M &amp;gt; K$$" style="text;html=1;strokeColor=none;fillColor=none;align=center;verticalAlign=middle;whiteSpace=wrap;rounded=0;rotation=45;" vertex="1" parent="1">
          <mxGeometry x="517" y="235" width="60" height="30" as="geometry" />
        </mxCell>
        <mxCell id="tE7Q02Ol-RE7BCVSA9B6-21" value="&lt;font style=&quot;font-size: 17px;&quot;&gt;$$\dots$$&lt;/font&gt;" style="text;html=1;strokeColor=none;fillColor=none;align=center;verticalAlign=middle;whiteSpace=wrap;rounded=0;rotation=90;" vertex="1" parent="1">
          <mxGeometry x="755" y="108" width="60" height="30" as="geometry" />
        </mxCell>
        <mxCell id="tE7Q02Ol-RE7BCVSA9B6-22" value="$$S$$" style="ellipse;whiteSpace=wrap;html=1;" vertex="1" parent="1">
          <mxGeometry x="760" y="148" width="40" height="40" as="geometry" />
        </mxCell>
        <mxCell id="tE7Q02Ol-RE7BCVSA9B6-23" value="" style="endArrow=none;html=1;rounded=0;entryX=0;entryY=0.5;entryDx=0;entryDy=0;exitX=1;exitY=0.5;exitDx=0;exitDy=0;" edge="1" parent="1" source="tE7Q02Ol-RE7BCVSA9B6-10" target="tE7Q02Ol-RE7BCVSA9B6-22">
          <mxGeometry width="50" height="50" relative="1" as="geometry">
            <mxPoint x="730" y="130" as="sourcePoint" />
            <mxPoint x="770" y="70" as="targetPoint" />
          </mxGeometry>
        </mxCell>
        <mxCell id="tE7Q02Ol-RE7BCVSA9B6-24" value="" style="shape=curlyBracket;whiteSpace=wrap;html=1;rounded=1;flipH=1;labelPosition=right;verticalLabelPosition=middle;align=left;verticalAlign=middle;" vertex="1" parent="1">
          <mxGeometry x="807" y="58" width="20" height="130" as="geometry" />
        </mxCell>
        <mxCell id="tE7Q02Ol-RE7BCVSA9B6-25" value="$$p$$" style="text;html=1;strokeColor=none;fillColor=none;align=center;verticalAlign=middle;whiteSpace=wrap;rounded=0;" vertex="1" parent="1">
          <mxGeometry x="815" y="108" width="60" height="30" as="geometry" />
        </mxCell>
        <mxCell id="tE7Q02Ol-RE7BCVSA9B6-26" value="" style="endArrow=none;html=1;rounded=0;entryX=0;entryY=0.5;entryDx=0;entryDy=0;" edge="1" parent="1" target="tE7Q02Ol-RE7BCVSA9B6-27">
          <mxGeometry width="50" height="50" relative="1" as="geometry">
            <mxPoint x="720" y="280" as="sourcePoint" />
            <mxPoint x="760" y="280" as="targetPoint" />
          </mxGeometry>
        </mxCell>
        <mxCell id="tE7Q02Ol-RE7BCVSA9B6-27" value="$$S$$" style="ellipse;whiteSpace=wrap;html=1;" vertex="1" parent="1">
          <mxGeometry x="760" y="221" width="40" height="40" as="geometry" />
        </mxCell>
        <mxCell id="tE7Q02Ol-RE7BCVSA9B6-29" value="$$S$$" style="ellipse;whiteSpace=wrap;html=1;" vertex="1" parent="1">
          <mxGeometry x="760" y="311" width="40" height="40" as="geometry" />
        </mxCell>
        <mxCell id="tE7Q02Ol-RE7BCVSA9B6-30" value="" style="endArrow=none;html=1;rounded=0;entryX=0;entryY=0.5;entryDx=0;entryDy=0;exitX=1;exitY=0.5;exitDx=0;exitDy=0;" edge="1" parent="1" target="tE7Q02Ol-RE7BCVSA9B6-29">
          <mxGeometry width="50" height="50" relative="1" as="geometry">
            <mxPoint x="720" y="280" as="sourcePoint" />
            <mxPoint x="770" y="230" as="targetPoint" />
          </mxGeometry>
        </mxCell>
        <mxCell id="tE7Q02Ol-RE7BCVSA9B6-31" value="" style="shape=curlyBracket;whiteSpace=wrap;html=1;rounded=1;flipH=1;labelPosition=right;verticalLabelPosition=middle;align=left;verticalAlign=middle;" vertex="1" parent="1">
          <mxGeometry x="807" y="221" width="20" height="130" as="geometry" />
        </mxCell>
        <mxCell id="tE7Q02Ol-RE7BCVSA9B6-32" value="$$1-p$$" style="text;html=1;strokeColor=none;fillColor=none;align=center;verticalAlign=middle;whiteSpace=wrap;rounded=0;" vertex="1" parent="1">
          <mxGeometry x="815" y="270" width="60" height="30" as="geometry" />
        </mxCell>
        <mxCell id="ZPE-zJAm7SWtLLTVLRYB-3" value="" style="edgeStyle=orthogonalEdgeStyle;rounded=0;orthogonalLoop=1;jettySize=auto;html=1;" edge="1" parent="1" source="tE7Q02Ol-RE7BCVSA9B6-33" target="tE7Q02Ol-RE7BCVSA9B6-2">
          <mxGeometry relative="1" as="geometry" />
        </mxCell>
        <mxCell id="ZPE-zJAm7SWtLLTVLRYB-4" value="" style="endArrow=none;html=1;rounded=0;" edge="1" parent="1" target="tE7Q02Ol-RE7BCVSA9B6-33">
          <mxGeometry width="50" height="50" relative="1" as="geometry">
            <mxPoint x="440" y="200" as="sourcePoint" />
            <mxPoint x="520" y="200" as="targetPoint" />
          </mxGeometry>
        </mxCell>
        <mxCell id="tE7Q02Ol-RE7BCVSA9B6-33" value="$$T$$" style="text;html=1;strokeColor=none;fillColor=none;align=center;verticalAlign=middle;whiteSpace=wrap;rounded=0;" vertex="1" parent="1">
          <mxGeometry x="420" y="187.5" width="20" height="25" as="geometry" />
        </mxCell>
        <mxCell id="tE7Q02Ol-RE7BCVSA9B6-53" value="$$T=?$$" style="text;html=1;strokeColor=none;fillColor=none;align=center;verticalAlign=middle;whiteSpace=wrap;rounded=0;" vertex="1" parent="1">
          <mxGeometry x="540" y="78" width="60" height="30" as="geometry" />
        </mxCell>
        <mxCell id="tE7Q02Ol-RE7BCVSA9B6-54" value="T=?" style="text;html=1;strokeColor=none;fillColor=none;align=center;verticalAlign=middle;whiteSpace=wrap;rounded=0;" vertex="1" parent="1">
          <mxGeometry x="540" y="286" width="60" height="30" as="geometry" />
        </mxCell>
        <mxCell id="ZPE-zJAm7SWtLLTVLRYB-6" value="&lt;font style=&quot;font-size: 17px;&quot;&gt;$$\dots$$&lt;/font&gt;" style="text;html=1;strokeColor=none;fillColor=none;align=center;verticalAlign=middle;whiteSpace=wrap;rounded=0;rotation=90;" vertex="1" parent="1">
          <mxGeometry x="755" y="271" width="60" height="30" as="geometry" />
        </mxCell>
        <mxCell id="ZPE-zJAm7SWtLLTVLRYB-7" value="$$S = M \times 3s$$" style="text;html=1;strokeColor=none;fillColor=none;align=center;verticalAlign=middle;whiteSpace=wrap;rounded=0;" vertex="1" parent="1">
          <mxGeometry x="750" y="360" width="60" height="30" as="geometry" />
        </mxCell>
      </root>
    </mxGraphModel>
  </diagram>
</mxfile>
